<svg width="118" height="26" viewBox="0 0 118 26" fill="none" xmlns="http://www.w3.org/2000/svg">
<g clip-path="url(#clip0_2105_10438)">
<path d="M8.9254 14.1624L15.8713 25.1308C15.9534 25.2563 16.0664 25.3582 16.1991 25.4266C16.332 25.4949 16.4801 25.5274 16.629 25.5208H19.2023C19.3184 25.5222 19.4336 25.5002 19.5412 25.4561C19.6487 25.412 19.7465 25.3467 19.8287 25.264C19.9109 25.1813 19.9759 25.083 20.0198 24.9747C20.0639 24.8663 20.086 24.7503 20.0849 24.6332V1.40444C20.0831 1.21918 20.0245 1.03902 19.9172 0.888656C19.8098 0.738291 19.6589 0.625087 19.4852 0.56457C19.3115 0.504053 19.1234 0.499186 18.9469 0.550638C18.7703 0.602089 18.6139 0.707338 18.499 0.851952L8.9254 13.096C8.82167 13.2542 8.76636 13.4396 8.76636 13.6292C8.76636 13.8188 8.82167 14.0042 8.9254 14.1624Z" fill="white"/>
<path d="M1.11703 25.5171H5.69931C5.81542 25.5184 5.93063 25.4964 6.03819 25.4523C6.14575 25.4082 6.24349 25.3429 6.32569 25.2603C6.40789 25.1776 6.4729 25.0792 6.51686 24.9709C6.56089 24.8626 6.58302 24.7465 6.58191 24.6294V18.7389C6.57912 18.5539 6.51972 18.3743 6.41197 18.2245C6.3042 18.0748 6.15324 17.9621 5.97966 17.9019C5.80607 17.8418 5.6183 17.8369 5.44193 17.8883C5.26556 17.9395 5.10916 18.0444 4.99403 18.1885L0.411747 24.079C0.313936 24.2123 0.254463 24.3701 0.239862 24.5353C0.22526 24.7004 0.256095 24.8664 0.32898 25.015C0.401864 25.1636 0.513976 25.2891 0.653001 25.3777C0.792024 25.4663 0.952578 25.5145 1.11703 25.5171Z" fill="white"/>
<path d="M82.9612 12.2732C82.9091 12.2086 82.8514 12.1482 82.79 12.0925L82.6952 12.0112L82.6468 11.9685C82.4285 11.7833 82.1911 11.6213 81.9393 11.4851C81.6665 11.3202 81.3776 11.1841 81.0775 11.0788C80.7699 10.9682 80.4537 10.8839 80.1319 10.827C79.3017 10.6782 78.4485 10.7219 77.6375 10.955C77.1526 11.0932 76.687 11.2917 76.2511 11.546C75.8226 11.799 75.4277 12.1062 75.0761 12.4601C74.7258 12.8171 74.417 13.213 74.1553 13.6402C73.8893 14.0705 73.686 14.537 73.5508 15.0255C73.265 16.0358 73.265 17.1067 73.5508 18.117C73.6891 18.6036 73.8924 19.069 74.1553 19.5002C74.417 19.9275 74.7258 20.3233 75.0761 20.6803C75.4295 21.0347 75.8251 21.3425 76.2548 21.5964C76.6919 21.8435 77.1551 22.0411 77.6356 22.1855C78.4671 22.4356 79.3463 22.4796 80.1989 22.3134C80.5263 22.2588 80.8468 22.1668 81.1537 22.0392C81.4483 21.9181 81.7329 21.7748 82.0063 21.6106C82.2773 21.4476 82.5389 21.2679 82.7882 21.0723C82.8595 21.0093 82.9271 20.9415 82.9897 20.8693L83.0219 20.8327C83.0814 20.7609 83.1267 20.6781 83.1546 20.589L83.167 20.5158C83.1732 20.3988 83.1459 20.2825 83.0883 20.1806L83.0597 20.136C83.038 20.1 83.0132 20.066 82.9853 20.0344L82.9109 19.9328C82.7615 19.7297 82.6208 19.5266 82.4695 19.3398C82.4056 19.2656 82.3256 19.2072 82.2357 19.1692C82.1464 19.1387 82.0491 19.1387 81.9598 19.1692C81.8314 19.2268 81.7149 19.3073 81.6151 19.4068L81.4824 19.5205C81.3509 19.6302 81.2808 19.7013 81.0973 19.8313C80.9324 19.9581 80.7538 20.0664 80.5653 20.1543C80.3619 20.2587 80.1462 20.3352 79.9223 20.3818C79.187 20.5423 78.4206 20.4611 77.7342 20.1502C77.2927 19.9499 76.8922 19.6697 76.5512 19.3235C76.2015 18.9696 75.9218 18.5518 75.7271 18.0926C75.52 17.6265 75.4128 17.1216 75.4128 16.6108C75.4128 16.1001 75.52 15.5952 75.7271 15.1291C75.9237 14.6675 76.2021 14.2462 76.5493 13.886C76.8947 13.5376 77.2958 13.2505 77.7361 13.037C78.3735 12.732 79.0927 12.6464 79.7834 12.7932C80.0147 12.8466 80.241 12.9186 80.4605 13.0085C80.6701 13.0981 80.8722 13.204 81.0651 13.3254C81.4681 13.565 81.9232 14.2516 82.3647 13.7072L83.0033 12.842C83.0337 12.8005 83.0548 12.7534 83.0659 12.7035C83.0777 12.6537 83.079 12.6019 83.0703 12.5515C83.0591 12.4507 83.0213 12.3546 82.9612 12.2732Z" fill="white"/>
<path d="M43.6672 21.481L36.6789 5.45278C36.6321 5.33376 36.551 5.23154 36.4462 5.15918C36.3414 5.08682 36.2176 5.0476 36.0905 5.04654H34.9702C34.8449 5.04604 34.7223 5.08303 34.6179 5.15281C34.5135 5.2226 34.432 5.32205 34.3837 5.43856L27.3814 21.4627C27.3333 21.5607 27.3116 21.6698 27.3187 21.7789C27.3258 21.8881 27.3613 21.9934 27.4217 22.0842C27.4788 22.1771 27.5586 22.2535 27.6536 22.3061C27.7486 22.3588 27.8553 22.3859 27.9637 22.3849H28.9974C29.1234 22.3874 29.2471 22.3513 29.3522 22.2813C29.4574 22.2112 29.5389 22.1106 29.5859 21.9928L31.2664 18.0381H39.76L41.4305 21.9928C41.4775 22.1122 41.5588 22.2146 41.6641 22.287C41.7693 22.3594 41.8935 22.3984 42.0209 22.3991H43.0285C43.1329 22.4057 43.2374 22.3861 43.3325 22.3417C43.4274 22.2974 43.51 22.2298 43.5725 22.1452C43.6461 22.0533 43.6938 21.9431 43.7105 21.8262C43.7272 21.7093 43.7122 21.59 43.6672 21.481ZM32.1611 15.9967L32.1894 15.9337L35.5565 8.03444L38.9338 15.9967H32.1611Z" fill="white"/>
<path d="M107.652 14.782C107.478 14.1617 107.206 13.5739 106.846 13.0412C106.58 12.6828 106.275 12.3563 105.935 12.0683C105.613 11.7794 105.248 11.5436 104.853 11.3695C104.467 11.1755 104.062 11.0243 103.644 10.9186C102.71 10.6867 101.732 10.7057 100.807 10.9735C100.332 11.1064 99.8778 11.3046 99.4568 11.5625C99.0401 11.824 98.6557 12.1334 98.3103 12.4847C97.9712 12.8356 97.6828 13.2337 97.4559 13.6668C97.2141 14.1078 97.0293 14.5782 96.9059 15.0663C96.6902 15.8436 96.6474 16.6592 96.7807 17.455C96.8154 17.766 96.8749 18.0737 96.958 18.3752C97.1316 18.9968 97.4038 19.586 97.7641 20.1199C98.0294 20.4778 98.3351 20.8035 98.6749 21.0909C98.9979 21.3801 99.3638 21.6165 99.7587 21.7916C100.144 21.986 100.55 22.1365 100.968 22.2405C102.393 22.5916 103.897 22.3601 105.153 21.5966C105.57 21.3357 105.954 21.0269 106.3 20.6765C106.629 20.3395 106.907 19.9547 107.124 19.535L107.142 19.4944C107.183 19.4391 107.207 19.3735 107.213 19.305C107.219 19.2364 107.205 19.1677 107.174 19.1064C107.149 19.0598 107.112 19.0207 107.067 18.9929C107.022 18.965 106.971 18.9496 106.918 18.9479H105.248C105.178 18.9463 105.108 18.961 105.044 18.9909C104.98 19.0209 104.924 19.0652 104.879 19.1206C104.669 19.3779 104.423 19.6035 104.15 19.7909C103.857 19.9794 103.539 20.1237 103.205 20.2195C102.463 20.4359 101.673 20.4132 100.946 20.1545C100.559 20.0127 100.194 19.8127 99.866 19.5614C99.5467 19.306 99.2819 18.9891 99.086 18.629C98.9149 18.2399 98.7939 17.8303 98.7251 17.4103L98.7152 17.3575H98.7716L107.356 17.3392C107.708 17.3392 107.908 17.1199 107.908 16.7299C107.931 16.0707 107.845 15.4123 107.652 14.782ZM105.825 15.5477L98.8783 15.5802L98.8963 15.5213C99.0122 15.126 99.1852 14.7501 99.4103 14.4062C99.685 13.9978 100.033 13.6457 100.438 13.3682C100.733 13.1777 101.054 13.0318 101.391 12.9356C102.132 12.7191 102.922 12.7418 103.65 13.0006C104.038 13.1424 104.402 13.3423 104.73 13.5937C105.051 13.8504 105.317 14.1695 105.512 14.5321C105.682 14.831 105.804 15.1553 105.873 15.4928L105.885 15.5477H105.825Z" fill="white"/>
<path d="M55.9997 20.6663C56.3456 20.3095 56.6491 19.9135 56.9045 19.4862C57.1571 19.047 57.3541 18.5775 57.4908 18.0888C57.7751 17.0788 57.7751 16.0092 57.4908 14.9993C57.3541 14.5106 57.1571 14.0411 56.9045 13.6018C56.3986 12.7344 55.6814 12.0115 54.8209 11.5016C54.39 11.25 53.9306 11.0515 53.4526 10.9105C52.2198 10.5508 50.9014 10.6341 49.7227 11.1461C49.2266 11.3736 48.7637 11.6681 48.3464 12.0216L48.2719 12.0845V11.4589C48.2806 11.3814 48.2718 11.3029 48.2462 11.2292C48.2206 11.1556 48.1788 11.0888 48.124 11.0336C48.0692 10.9786 48.0027 10.9367 47.9296 10.9111C47.8564 10.8856 47.7785 10.877 47.7016 10.8861H46.8231C46.7454 10.8768 46.6666 10.885 46.5925 10.9101C46.5184 10.9354 46.4507 10.9769 46.3946 11.0318C46.3384 11.0866 46.295 11.1535 46.2678 11.2274C46.2404 11.3013 46.2298 11.3803 46.2366 11.4589V24.942C46.2342 25.0166 46.2467 25.091 46.2733 25.1606C46.3 25.2303 46.3403 25.2938 46.3918 25.3474C46.4433 25.4011 46.505 25.4437 46.5732 25.4728C46.6414 25.5019 46.7147 25.5169 46.7888 25.5168H47.6855C47.8432 25.5216 47.9965 25.464 48.1127 25.3564C48.1651 25.3031 48.2062 25.2395 48.2337 25.1697C48.261 25.0999 48.274 25.0252 48.2719 24.9501V21.0096L48.3464 21.0726C48.7578 21.4216 49.2156 21.7108 49.7066 21.9318C50.8846 22.4436 52.2024 22.527 53.4345 22.1674C53.9193 22.0296 54.3851 21.831 54.8209 21.5763C55.2513 21.3257 55.6475 21.0198 55.9997 20.6663ZM53.3338 20.1016C52.8875 20.311 52.4013 20.4194 51.9091 20.4194C51.4169 20.4194 50.9307 20.311 50.4845 20.1016C50.0364 19.8983 49.6339 19.6053 49.3016 19.2405C48.9603 18.8796 48.6871 18.459 48.4956 17.9994C48.3021 17.534 48.2025 17.0344 48.2025 16.5298C48.2025 16.0252 48.3021 15.5256 48.4956 15.0602C48.6901 14.6088 48.9631 14.1961 49.3016 13.8415C49.6404 13.4882 50.0415 13.2016 50.4845 12.9965C50.9305 12.7878 51.4163 12.6797 51.9081 12.6797C52.3998 12.6797 52.8857 12.7878 53.3317 12.9965C53.7682 13.2038 54.1635 13.4895 54.4985 13.8395C54.8314 14.1953 55.0988 14.608 55.2884 15.0582C55.4829 15.523 55.5831 16.0223 55.5831 16.5268C55.5831 17.0312 55.4829 17.5305 55.2884 17.9953C55.0951 18.4525 54.8274 18.874 54.4965 19.2425C54.1679 19.6021 53.773 19.894 53.3338 20.1016Z" fill="white"/>
<path d="M61.5351 10.9023H60.6565C60.5779 10.8927 60.4982 10.9011 60.4233 10.9268C60.3483 10.9526 60.2801 10.9951 60.2238 11.0512C60.1674 11.1072 60.1243 11.1753 60.0977 11.2505C60.0711 11.3257 60.0617 11.406 60.0702 11.4853V24.9501C60.0684 25.0251 60.0815 25.0997 60.1089 25.1695C60.1362 25.2393 60.1772 25.3029 60.2293 25.3564C60.2809 25.4082 60.3422 25.449 60.4097 25.4766C60.4772 25.5042 60.5495 25.5179 60.6223 25.5169H61.517C61.6747 25.5216 61.828 25.464 61.9442 25.3564C61.997 25.3034 62.0384 25.2399 62.0658 25.17C62.0932 25.1001 62.1059 25.0252 62.1033 24.9501V21.0096L62.1779 21.0725C62.5899 21.422 63.0481 21.7113 63.5404 21.9317C64.7179 22.4438 66.0361 22.5271 67.2681 22.1674C67.753 22.0292 68.2186 21.8306 68.6545 21.5763C69.0842 21.3212 69.4804 21.012 69.8332 20.6562C70.1786 20.2993 70.4811 19.9033 70.736 19.476C70.9883 19.0367 71.1855 18.5673 71.3225 18.0786C71.6084 17.0689 71.6084 15.9987 71.3225 14.9891C71.1861 14.5003 70.989 14.0307 70.736 13.5917C70.2313 12.7239 69.5145 12.0008 68.6545 11.4914C68.2223 11.2402 67.7623 11.0417 67.2842 10.9003C66.0516 10.5408 64.7327 10.6241 63.5541 11.1359C63.058 11.3634 62.5949 11.6579 62.1779 12.0113L62.0973 12.0947V11.4853C62.1074 11.4077 62.1001 11.3288 62.0756 11.2546C62.0512 11.1803 62.0104 11.1126 61.9563 11.0565C61.9022 11.0004 61.8362 10.9574 61.7633 10.9307C61.6903 10.904 61.6123 10.8943 61.5351 10.9023ZM62.3289 15.0744C62.5242 14.6232 62.797 14.2106 63.1349 13.8557C63.4722 13.5001 63.8721 13.2108 64.3136 13.0026C64.76 12.7939 65.2455 12.6858 65.7378 12.6858C66.2295 12.6858 66.715 12.7939 67.1614 13.0026C67.6035 13.2092 68.0041 13.4956 68.3439 13.8476C68.6768 14.2034 68.9447 14.6161 69.1338 15.0663C69.3291 15.531 69.4295 16.0303 69.4295 16.5348C69.4295 17.0393 69.3291 17.5387 69.1338 18.0034C68.9428 18.4623 68.675 18.8848 68.342 19.2526C68.0134 19.612 67.6184 19.9038 67.1794 20.1118C66.7324 20.3206 66.2463 20.4287 65.754 20.4287C65.261 20.4287 64.7749 20.3206 64.3279 20.1118C63.8808 19.9077 63.479 19.6148 63.1473 19.2506C62.8057 18.89 62.5322 18.4694 62.3413 18.0095C62.1465 17.5454 62.0452 17.047 62.0431 16.5432C62.0411 16.0393 62.1383 15.5401 62.3289 15.0744Z" fill="white"/>
<path d="M94.5399 11.3188C94.5479 11.24 94.538 11.1603 94.5113 11.0859C94.4841 11.0115 94.4413 10.9441 94.3848 10.889C94.3284 10.8338 94.2602 10.7923 94.1852 10.7676C94.1108 10.7428 94.0314 10.7354 93.9533 10.746H93.0691C92.9922 10.7369 92.9141 10.7455 92.8409 10.771C92.7678 10.7965 92.7014 10.8384 92.6463 10.8935C92.5917 10.9486 92.5501 11.0154 92.5241 11.0891C92.4987 11.1627 92.49 11.2412 92.4987 11.3188V17.782C92.5061 18.1607 92.4243 18.5358 92.2606 18.8768C92.1205 19.1887 91.914 19.466 91.6567 19.6893C91.4049 19.8985 91.121 20.0639 90.8159 20.1788C90.4736 20.3066 90.1097 20.3629 89.7451 20.344C89.3805 20.3251 89.0234 20.2316 88.696 20.0691C88.386 19.9072 88.1169 19.675 87.9104 19.3907C87.7045 19.1202 87.5582 18.8086 87.4813 18.4767C87.397 18.1391 87.3523 17.7928 87.348 17.4448V11.4853C87.3579 11.2904 87.312 11.0967 87.2172 10.9267C87.1453 10.8525 87.0578 10.7956 86.9611 10.7605C86.8644 10.7253 86.7614 10.7126 86.6591 10.7236H86.0224C85.9275 10.7204 85.8326 10.7368 85.7446 10.7717C85.6559 10.8066 85.5759 10.8594 85.5083 10.9267C85.4377 11.0061 85.3831 11.0989 85.349 11.1997C85.3143 11.3005 85.3 11.4073 85.3068 11.5137V17.4631C85.2994 18.113 85.3961 18.7597 85.5933 19.3785C85.7787 19.9549 86.072 20.4899 86.4576 20.9548C86.8427 21.4096 87.3251 21.7707 87.8682 22.0109C88.8125 22.3991 89.8499 22.4987 90.8506 22.2974C91.1203 22.2318 91.3845 22.1413 91.6381 22.0272C91.8749 21.9164 92.0944 21.7714 92.2891 21.5966L92.428 21.4666L92.5049 21.3914V21.8444C92.503 21.9111 92.5142 21.9776 92.5384 22.0397C92.5632 22.1018 92.5991 22.1584 92.6456 22.2059C92.699 22.2726 92.7672 22.3257 92.8447 22.361C92.9216 22.3963 93.0065 22.4128 93.0908 22.4091H93.9855C94.0587 22.4106 94.1306 22.3973 94.1982 22.3701C94.2658 22.3429 94.3272 22.3023 94.3786 22.2506C94.4351 22.2003 94.4791 22.1373 94.507 22.0668C94.5349 21.9963 94.5461 21.9201 94.5399 21.8444V11.3188Z" fill="white"/>
<path d="M117.034 17.644C116.848 17.2513 116.579 16.9046 116.244 16.6284C115.879 16.3282 115.472 16.0839 115.035 15.9033C114.542 15.6968 114.031 15.5377 113.508 15.428C113.253 15.3697 113.002 15.293 112.759 15.1984C112.538 15.1173 112.328 15.0096 112.134 14.8775C111.871 14.7177 111.667 14.476 111.553 14.1889C111.487 13.9782 111.487 13.7518 111.553 13.541C111.624 13.3033 111.922 12.6493 113.075 12.5762C114.177 12.5071 114.731 13.09 114.922 13.35C114.951 13.3866 115.221 13.738 115.414 13.9594C115.449 13.9912 115.488 14.0185 115.529 14.0407C115.608 14.0715 115.694 14.082 115.778 14.071C115.862 14.06 115.942 14.0279 116.011 13.9777L116.684 13.474C116.757 13.4299 116.817 13.3674 116.859 13.2927C116.902 13.2178 116.924 13.1333 116.923 13.0474V13.0271C116.894 12.8965 116.842 12.7722 116.77 12.6594C116.572 12.3722 116.356 12.0968 116.125 11.8348C115.92 11.5909 115.68 11.3793 115.412 11.2072C115.135 11.0338 114.833 10.903 114.518 10.8192C113.619 10.5896 112.672 10.6263 111.793 10.9248C111.349 11.0585 110.938 11.2833 110.584 11.5849C110.246 11.8675 109.976 12.2229 109.792 12.6249C109.609 13.0272 109.512 13.4635 109.506 13.9058C109.5 14.3482 109.585 14.787 109.756 15.1943C109.921 15.5644 110.166 15.8932 110.471 16.1572C110.8 16.4415 111.163 16.685 111.549 16.8823C112.003 17.097 112.475 17.2697 112.96 17.3982C113.103 17.4307 113.246 17.4693 113.395 17.51C113.544 17.5506 113.689 17.5892 113.836 17.6237C114.097 17.6872 114.35 17.7812 114.588 17.904C114.789 18.0006 114.967 18.139 115.11 18.3102C115.236 18.4965 115.301 18.7173 115.297 18.9424C115.293 19.1675 115.22 19.3859 115.088 19.5675C114.941 19.7567 114.761 19.9166 114.556 20.0388C114.346 20.1618 114.12 20.2547 113.885 20.315C113.487 20.4055 113.074 20.4055 112.676 20.315C112.467 20.2606 112.264 20.1843 112.072 20.0875C111.876 19.9891 111.694 19.8663 111.529 19.7219C111.379 19.5533 111.249 19.368 111.14 19.1694C111.089 19.0512 111.013 18.9457 110.916 18.8607C110.84 18.7962 110.746 18.7559 110.647 18.7447C110.547 18.7335 110.448 18.752 110.358 18.7977L109.552 19.1816C109.484 19.2106 109.422 19.2519 109.369 19.3035C109.325 19.3475 109.29 19.3991 109.264 19.4558C109.233 19.5367 109.226 19.6249 109.244 19.7097C109.252 19.795 109.273 19.8787 109.307 19.9575C109.446 20.3259 109.644 20.6689 109.893 20.9732C110.169 21.305 110.506 21.5807 110.884 21.7856C111.238 21.9985 111.623 22.1528 112.025 22.2427C112.949 22.4632 113.914 22.4323 114.822 22.1533C115.301 22.0183 115.75 21.7892 116.141 21.4789C116.519 21.1915 116.823 20.8167 117.026 20.3861C117.226 19.9573 117.33 19.4896 117.331 19.016C117.333 18.5423 117.232 18.074 117.034 17.644Z" fill="white"/>
</g>
<defs>
<clipPath id="clip0_2105_10438">
<rect width="117.188" height="25" fill="white" transform="translate(0.234375 0.516846)"/>
</clipPath>
</defs>
</svg>
