<svg width="120" height="21" viewBox="0 0 120 21" fill="none" xmlns="http://www.w3.org/2000/svg">
<path d="M4.9027 20H0.618608L7.14631 1.09091H12.2983L18.8168 20H14.5327L9.79617 5.41193H9.64844L4.9027 20ZM4.63494 12.5675H14.7543V15.6882H4.63494V12.5675ZM21.4177 20V1.09091H28.8779C30.3059 1.09091 31.5247 1.34635 32.5342 1.85724C33.5498 2.36198 34.3223 3.07907 34.8516 4.00852C35.3871 4.93182 35.6549 6.01823 35.6549 7.26776C35.6549 8.52344 35.3841 9.60369 34.8424 10.5085C34.3007 11.4072 33.5159 12.0966 32.488 12.5767C31.4662 13.0568 30.229 13.2969 28.7764 13.2969H23.7813V10.0838H28.13C28.8933 10.0838 29.5273 9.97917 30.032 9.76989C30.5368 9.56061 30.9122 9.24669 31.1585 8.82812C31.4108 8.40956 31.537 7.88944 31.537 7.26776C31.537 6.63991 31.4108 6.11056 31.1585 5.67969C30.9122 5.24882 30.5337 4.92258 30.0228 4.70099C29.5181 4.47325 28.881 4.35938 28.1116 4.35938H25.4156V20H21.4177ZM31.6293 11.3949L36.3289 20H31.9156L27.3175 11.3949H31.6293ZM49.063 6.52912C48.9891 5.78433 48.6721 5.20573 48.112 4.79332C47.5519 4.38092 46.7917 4.17471 45.8315 4.17471C45.179 4.17471 44.6281 4.26704 44.1788 4.4517C43.7294 4.63021 43.3847 4.8795 43.1447 5.19957C42.9108 5.51965 42.7938 5.88281 42.7938 6.28906C42.7815 6.6276 42.8523 6.92306 43.0062 7.17543C43.1662 7.42779 43.3847 7.64631 43.6617 7.83097C43.9387 8.00947 44.2588 8.16643 44.6219 8.30185C44.9851 8.43111 45.3729 8.5419 45.7853 8.63423L47.4842 9.04048C48.309 9.22514 49.0661 9.47135 49.7555 9.77912C50.4449 10.0869 51.0419 10.4654 51.5467 10.9148C52.0514 11.3641 52.4423 11.8935 52.7192 12.5028C53.0024 13.1122 53.147 13.8108 53.1532 14.5987C53.147 15.7559 52.8516 16.7592 52.2668 17.6087C51.6882 18.4519 50.8511 19.1075 49.7555 19.5753C48.666 20.0369 47.3518 20.2678 45.813 20.2678C44.2865 20.2678 42.9569 20.0339 41.8244 19.5661C40.6979 19.0982 39.8177 18.4058 39.1837 17.4886C38.5559 16.5653 38.2266 15.4235 38.1958 14.0632H42.0644C42.1075 14.6972 42.2891 15.2266 42.6092 15.6513C42.9354 16.0698 43.3693 16.3868 43.911 16.6023C44.4588 16.8116 45.0774 16.9162 45.7668 16.9162C46.4439 16.9162 47.0317 16.8177 47.5303 16.6207C48.0351 16.4238 48.4259 16.1499 48.7029 15.799C48.9799 15.4482 49.1184 15.045 49.1184 14.5895C49.1184 14.1648 48.9922 13.8078 48.7398 13.5185C48.4936 13.2292 48.1305 12.983 47.6504 12.7798C47.1764 12.5767 46.5947 12.392 45.9053 12.2259L43.8464 11.7088C42.2522 11.321 40.9934 10.7147 40.0701 9.88991C39.1468 9.0651 38.6882 7.95407 38.6944 6.55682C38.6882 5.41193 38.9929 4.41169 39.6085 3.55611C40.2301 2.70052 41.0826 2.03267 42.166 1.55256C43.2493 1.07244 44.4804 0.832386 45.8592 0.832386C47.2626 0.832386 48.4875 1.07244 49.5339 1.55256C50.5864 2.03267 51.4051 2.70052 51.9898 3.55611C52.5746 4.41169 52.8762 5.4027 52.8947 6.52912H49.063ZM60.0267 11.8011V20H56.0934V1.09091H59.9159V8.32031H60.0821C60.4021 7.48319 60.9192 6.82765 61.6332 6.35369C62.3472 5.87358 63.2428 5.63352 64.32 5.63352C65.3048 5.63352 66.1635 5.84896 66.896 6.27983C67.6346 6.70454 68.2071 7.317 68.6133 8.11719C69.0257 8.91122 69.2288 9.86222 69.2227 10.9702V20H65.2895V11.6719C65.2956 10.7978 65.074 10.1177 64.6247 9.63139C64.1815 9.14512 63.5598 8.90199 62.7596 8.90199C62.2241 8.90199 61.7502 9.01586 61.3377 9.24361C60.9315 9.47135 60.6114 9.80374 60.3775 10.2408C60.1498 10.6716 60.0328 11.1918 60.0267 11.8011ZM76.6871 20.2678C75.7822 20.2678 74.9759 20.1108 74.268 19.7969C73.5602 19.4768 73.0001 19.0059 72.5876 18.3842C72.1814 17.7564 71.9783 16.9747 71.9783 16.0391C71.9783 15.2512 72.1229 14.5895 72.4122 14.054C72.7015 13.5185 73.0955 13.0876 73.594 12.7614C74.0926 12.4351 74.6589 12.1889 75.2929 12.0227C75.9331 11.8565 76.604 11.7396 77.3057 11.6719C78.1305 11.5857 78.7953 11.5057 79.3 11.4318C79.8047 11.3518 80.171 11.2348 80.3987 11.081C80.6265 10.9271 80.7403 10.6993 80.7403 10.3977V10.3423C80.7403 9.75758 80.5557 9.30516 80.1864 8.98508C79.8232 8.66501 79.3062 8.50497 78.6352 8.50497C77.9274 8.50497 77.3642 8.66193 76.9456 8.97585C76.527 9.28362 76.2501 9.6714 76.1146 10.1392L72.4768 9.84375C72.6615 8.98201 73.0247 8.23722 73.5663 7.60938C74.108 6.97538 74.8066 6.48911 75.6622 6.15057C76.524 5.80587 77.5211 5.63352 78.6537 5.63352C79.4416 5.63352 80.1956 5.72585 80.9158 5.91051C81.6421 6.09517 82.2853 6.38139 82.8455 6.76918C83.4117 7.15696 83.858 7.65554 84.1842 8.26491C84.5105 8.86813 84.6736 9.59138 84.6736 10.4347V20H80.9435V18.0334H80.8327C80.6049 18.4766 80.3002 18.8674 79.9186 19.206C79.537 19.5384 79.0784 19.8 78.5429 19.9908C78.0074 20.1754 77.3888 20.2678 76.6871 20.2678ZM77.8135 17.5533C78.3921 17.5533 78.903 17.4394 79.3462 17.2116C79.7893 16.9777 80.1371 16.6638 80.3895 16.2699C80.6419 15.8759 80.768 15.4297 80.768 14.9311V13.4261C80.6449 13.5062 80.4757 13.58 80.2602 13.6477C80.051 13.7093 79.814 13.7678 79.5493 13.8232C79.2846 13.8724 79.0199 13.9186 78.7553 13.9616C78.4906 13.9986 78.2505 14.0324 78.0351 14.0632C77.5734 14.1309 77.1703 14.2386 76.8256 14.3864C76.4809 14.5341 76.2131 14.7341 76.0223 14.9865C75.8315 15.2327 75.7361 15.5405 75.7361 15.9098C75.7361 16.4453 75.93 16.8546 76.3178 17.1378C76.7117 17.4148 77.2103 17.5533 77.8135 17.5533ZM91.614 15.919L91.6232 11.201H92.1957L96.7383 5.81818H101.253L95.1502 12.946H94.2177L91.614 15.919ZM88.0501 20V1.09091H91.9833V20H88.0501ZM96.9137 20L92.7404 13.8232L95.3626 11.044L101.521 20H96.9137ZM103.508 20V5.81818H107.441V20H103.508ZM105.484 3.99006C104.899 3.99006 104.397 3.79616 103.979 3.40838C103.566 3.01444 103.36 2.54356 103.36 1.99574C103.36 1.45407 103.566 0.989346 103.979 0.601562C104.397 0.207622 104.899 0.0106524 105.484 0.0106524C106.068 0.0106524 106.567 0.207622 106.979 0.601562C107.398 0.989346 107.607 1.45407 107.607 1.99574C107.607 2.54356 107.398 3.01444 106.979 3.40838C106.567 3.79616 106.068 3.99006 105.484 3.99006ZM110.917 20V5.81818H114.73V8.29261H114.878C115.136 7.4124 115.57 6.74763 116.18 6.2983C116.789 5.8428 117.491 5.61506 118.285 5.61506C118.482 5.61506 118.694 5.62737 118.922 5.65199C119.15 5.67661 119.35 5.71046 119.522 5.75355V9.24361C119.337 9.18821 119.082 9.13897 118.756 9.09588C118.429 9.05279 118.131 9.03125 117.86 9.03125C117.281 9.03125 116.764 9.15743 116.309 9.4098C115.86 9.65601 115.503 10.0007 115.238 10.4439C114.979 10.8871 114.85 11.398 114.85 11.9766V20H110.917Z" fill="#F2994A"/>
</svg>
